<?xml version="1.0" standalone="no"?>
<!DOCTYPE svg PUBLIC "-//W3C//DTD SVG 20010904//EN"
 "http://www.w3.org/TR/2001/REC-SVG-20010904/DTD/svg10.dtd">
<svg version="1.0" xmlns="http://www.w3.org/2000/svg"
 width="700.000000pt" height="700.000000pt" viewBox="0 0 700.000000 700.000000"
 preserveAspectRatio="xMidYMid meet">
<metadata>
Created by potrace 1.14, written by Peter Selinger 2001-2017
</metadata>
<g transform="translate(0.000000,700.000000) scale(0.100000,-0.100000)"
fill="#000000" stroke="none">
<path d="M3438 6703 c-31 -65 -104 -215 -161 -333 -110 -226 -220 -453 -407
-835 -195 -399 -240 -494 -240 -504 0 -6 25 -52 57 -103 31 -51 61 -102 67
-113 6 -11 31 -53 56 -93 25 -40 50 -81 55 -90 41 -68 138 -230 145 -242 13
-20 268 -446 290 -485 10 -16 105 -174 210 -350 106 -176 198 -329 204 -340 6
-11 31 -53 56 -93 25 -41 52 -86 61 -100 9 -15 67 -112 130 -217 63 -104 118
-198 124 -207 9 -16 272 -452 348 -577 15 -25 30 -53 34 -61 4 -8 24 -41 45
-73 21 -32 38 -61 38 -64 0 -4 7 -15 17 -25 9 -10 14 -20 11 -23 -5 -5 -17 5
-168 145 -57 52 -117 108 -134 124 -17 15 -51 47 -76 70 -25 23 -99 91 -165
151 -65 61 -133 124 -151 140 -17 17 -71 67 -121 112 -92 85 -110 101 -204
188 -30 28 -110 102 -179 165 -69 63 -137 126 -151 140 -31 29 -214 198 -239
220 -9 8 -68 62 -130 120 -62 58 -127 119 -145 135 -40 37 -209 193 -250 230
-16 15 -77 71 -134 124 -57 53 -119 110 -136 126 -18 17 -57 53 -87 80 -30 28
-100 93 -157 145 -57 52 -126 116 -153 141 -32 30 -57 45 -71 44 -12 -2 -83
-6 -157 -9 -193 -10 -281 -14 -395 -21 -55 -3 -149 -7 -210 -10 -60 -3 -146
-7 -190 -10 -44 -2 -134 -7 -200 -10 -66 -3 -154 -8 -195 -10 -83 -5 -338 -17
-357 -18 -7 0 -13 -3 -13 -6 0 -3 63 -66 139 -141 77 -74 266 -258 420 -409
154 -150 322 -314 373 -363 83 -80 671 -654 769 -751 42 -41 41 -34 19 -152
-5 -27 -12 -67 -15 -87 -13 -91 -17 -115 -25 -148 -6 -20 -12 -54 -14 -75 -3
-22 -20 -130 -39 -240 -52 -297 -126 -728 -143 -825 -7 -47 -16 -94 -18 -105
-3 -18 -13 -74 -22 -130 -1 -11 -12 -72 -23 -135 -11 -63 -22 -128 -25 -145
-3 -16 -19 -111 -36 -209 -16 -99 -28 -181 -26 -184 5 -4 49 17 214 104 152
81 246 131 357 189 61 32 146 77 190 100 44 23 134 71 200 105 66 34 152 79
190 100 39 21 124 66 190 100 66 35 156 82 200 105 82 43 196 103 410 215 66
34 139 73 162 86 l41 24 79 -41 c43 -23 119 -63 168 -89 124 -66 398 -209 610
-320 66 -34 143 -75 170 -90 28 -15 106 -57 175 -93 117 -61 159 -82 400 -209
52 -28 154 -81 225 -118 72 -38 177 -93 234 -124 l103 -55 -6 37 c-3 20 -8 48
-11 62 -2 14 -14 81 -25 150 -32 194 -49 293 -55 320 -3 14 -7 41 -10 60 -3
19 -7 46 -9 60 -4 20 -24 132 -62 350 -9 54 -46 276 -49 295 -2 11 -10 61 -19
110 -9 50 -18 101 -21 115 -2 14 -18 108 -35 210 -43 257 -45 266 -60 345 -5
28 -11 66 -14 85 -3 19 -12 73 -21 119 l-16 84 28 30 c27 29 155 154 357 351
113 110 632 616 915 892 102 100 244 238 316 307 71 70 127 128 125 131 -3 2
-25 7 -50 10 -25 4 -56 9 -70 12 -14 2 -45 6 -69 9 -24 2 -51 7 -60 9 -9 3
-41 8 -71 11 -47 5 -106 14 -210 30 -14 2 -61 9 -105 15 -44 6 -93 13 -110 15
-80 12 -164 25 -200 30 -22 3 -53 7 -70 10 -16 3 -48 7 -70 10 -22 3 -65 10
-95 15 -30 5 -77 11 -105 15 -27 3 -61 7 -75 10 -25 4 -50 8 -175 26 -38 5
-81 11 -95 14 -23 4 -217 31 -285 40 -16 3 -48 7 -70 10 -54 9 -82 13 -135 20
-25 3 -52 8 -60 10 -8 2 -40 7 -70 11 -30 3 -77 9 -105 13 l-50 6 -154 310
c-177 356 -649 1312 -814 1648 -61 125 -114 227 -117 227 -3 0 -31 -53 -62
-117z"/>
</g>
</svg>
